<svg width="18" height="17" viewBox="0 0 18 17" fill="none" xmlns="http://www.w3.org/2000/svg">
<path d="M14.5 17C13.5333 17 12.7083 16.6583 12.025 15.975C11.3417 15.2917 11 14.4667 11 13.5C11 12.5333 11.3417 11.7083 12.025 11.025C12.7083 10.3417 13.5333 10 14.5 10C15.4667 10 16.2917 10.3417 16.975 11.025C17.6583 11.7083 18 12.5333 18 13.5C18 14.4667 17.6583 15.2917 16.975 15.975C16.2917 16.6583 15.4667 17 14.5 17ZM14.5 15C14.9167 15 15.2708 14.8542 15.5625 14.5625C15.8542 14.2708 16 13.9167 16 13.5C16 13.0833 15.8542 12.7292 15.5625 12.4375C15.2708 12.1458 14.9167 12 14.5 12C14.0833 12 13.7292 12.1458 13.4375 12.4375C13.1458 12.7292 13 13.0833 13 13.5C13 13.9167 13.1458 14.2708 13.4375 14.5625C13.7292 14.8542 14.0833 15 14.5 15ZM0 14.5V12.5H9V14.5H0ZM3.5 7C2.53333 7 1.70833 6.65833 1.025 5.975C0.341667 5.29167 0 4.46667 0 3.5C0 2.53333 0.341667 1.70833 1.025 1.025C1.70833 0.341667 2.53333 0 3.5 0C4.46667 0 5.29167 0.341667 5.975 1.025C6.65833 1.70833 7 2.53333 7 3.5C7 4.46667 6.65833 5.29167 5.975 5.975C5.29167 6.65833 4.46667 7 3.5 7ZM3.5 5C3.91667 5 4.27083 4.85417 4.5625 4.5625C4.85417 4.27083 5 3.91667 5 3.5C5 3.08333 4.85417 2.72917 4.5625 2.4375C4.27083 2.14583 3.91667 2 3.5 2C3.08333 2 2.72917 2.14583 2.4375 2.4375C2.14583 2.72917 2 3.08333 2 3.5C2 3.91667 2.14583 4.27083 2.4375 4.5625C2.72917 4.85417 3.08333 5 3.5 5ZM9 4.5V2.5H18V4.5H9Z" fill="#1C1B1F"/>
</svg>
